<?xml version="1.0" encoding="UTF-8"?>
<svg id="Layer_1" xmlns="http://www.w3.org/2000/svg" version="1.1" viewBox="0 0 125 125">
  <!-- Generator: Adobe Illustrator 29.4.0, SVG Export Plug-In . SVG Version: 2.1.0 Build 152)  -->
  <defs>
    <style>
      .st0 {
        fill: #254c82;
      }

      .st1 {
        fill: #b8b5b1;
      }
    </style>
  </defs>
  <g id="Shape_1">
    <path class="st1" d="M124,56.6C109.1-25,7.4-9.7,1,56.6c6.2,3.2,10,5.1,10,5.1,0,0-3.3,2-10.1,6.3,12.3,80.3,117.4,68.6,123,0-6.7-4.1-10.3-6.3-10.3-6.3,0,0,3.1-1.5,10.3-5.1h0ZM71.4,85.2l-10-17.2-10.2,17.2-7.7-.5,14.5-24.5-13.1-21.1,7.9-.7,9.3,15.7,9.3-15,7.3.2-12.2,20.8,13.4,25-8.6.2h0Z"/>
  </g>
  <g id="Shape_11">
    <path class="st0" d="M119,53.5C99.9-19.3,12,.4,6,53.5c12.2,6.9,14.9,8.5,14.9,8.5,0,0-4.7,3-15,9.5,13.1,69.9,107.8,56.5,113,0-9.6-6-15.2-9.5-15.2-9.5,0,0,12.9-7.2,15.2-8.4h0ZM71.4,85.3l-10-17.2-10.2,17.2-7.7-.5,14.5-24.4-13.1-21.1,7.9-.7,9.3,15.7,9.3-15,7.3.2-12.2,20.8,13.4,25-8.6.2v-.2Z"/>
  </g>
</svg>